<?xml version="1.0" standalone="no"?>
<!DOCTYPE svg PUBLIC "-//W3C//DTD SVG 20010904//EN"
 "http://www.w3.org/TR/2001/REC-SVG-20010904/DTD/svg10.dtd">
<svg version="1.0" xmlns="http://www.w3.org/2000/svg"
 width="700.000000pt" height="700.000000pt" viewBox="0 0 700.000000 700.000000"
 preserveAspectRatio="xMidYMid meet">
<metadata>
Created by potrace 1.14, written by Peter Selinger 2001-2017
</metadata>
<g transform="translate(0.000000,700.000000) scale(0.100000,-0.100000)"
fill="#000000" stroke="none">
<path d="M3280 6994 c-19 -2 -84 -9 -145 -14 -578 -56 -1180 -283 -1660 -625
-237 -169 -531 -446 -709 -670 -364 -456 -603 -983 -710 -1565 -51 -282 -51
-268 -51 -1885 l0 -1510 28 -88 c95 -303 301 -509 604 -604 l88 -28 2775 0
2775 0 88 28 c311 97 528 320 609 627 l23 85 0 1505 c0 1585 0 1567 -46 1840
-103 610 -368 1182 -770 1660 -122 145 -351 370 -494 484 -510 407 -1117 661
-1775 742 -117 15 -553 27 -630 18z m770 -1320 c36 -8 160 -46 276 -84 254
-83 373 -109 409 -90 34 18 103 7 175 -29 87 -43 129 -80 140 -123 14 -48 110
-127 365 -295 105 -70 224 -151 265 -181 167 -124 244 -220 219 -276 -7 -14
-17 -26 -24 -26 -40 0 -230 75 -480 190 -236 109 -423 180 -471 180 -17 0 -66
-97 -209 -410 -423 -927 -952 -2162 -942 -2201 2 -9 94 -168 204 -355 261
-443 272 -461 332 -582 59 -118 84 -201 75 -251 -15 -77 -189 -191 -292 -191
-29 0 -68 7 -88 15 -49 20 -127 104 -179 193 -44 75 -64 118 -186 405 -63 149
-110 237 -128 237 -16 0 -57 -97 -101 -240 -112 -366 -179 -489 -295 -545 -48
-24 -64 -27 -120 -23 -145 12 -365 166 -365 256 0 42 83 219 343 735 l252 498
-49 142 c-109 319 -226 584 -477 1087 -186 370 -324 624 -417 764 -58 87 -107
116 -193 116 -104 0 -203 -45 -413 -188 -239 -163 -300 -202 -317 -202 -8 0
-35 34 -62 78 -53 88 -154 295 -162 333 -6 25 7 33 627 346 1049 532 1379 683
1487 683 32 0 43 -5 59 -27 62 -88 115 -241 116 -333 l1 -65 -150 -37 c-82
-20 -193 -46 -245 -58 -347 -81 -396 -194 -256 -595 119 -341 578 -1309 676
-1427 l27 -32 34 47 c169 239 803 1540 929 1907 17 48 30 95 30 104 0 18 -179
109 -350 176 -141 56 -256 117 -281 149 -18 22 -20 35 -16 83 6 71 32 118 77
140 43 22 66 22 150 2z"/>
</g>
</svg>
